<?xml version="1.0" encoding="utf-8"?>
<!-- Generator: Adobe Illustrator 24.1.1, SVG Export Plug-In . SVG Version: 6.00 Build 0)  -->
<svg version="1.1" id="Layer_1" xmlns="http://www.w3.org/2000/svg" xmlns:xlink="http://www.w3.org/1999/xlink" x="0px" y="0px"
	 viewBox="0 0 244.1 235.4" style="enable-background:new 0 0 244.1 235.4;" xml:space="preserve">
<style type="text/css">
	.st0{fill:#0E99B7;}
	.st1{fill:#0B6E98;}
	.st2{fill:#0B587C;}
	.st3{fill:#0E6F99;}
	.st4{fill:#028B9E;}
	.st5{fill:#00B3CA;}
	.st6{fill:#02DFFB;}
	.st7{fill:#33393A;}
	.st8{fill:#015F6B;}
</style>
<g id="Layer_2_1_">
	<g id="Layer_1-2">
		<polygon class="st0" points="158.5,0.3 158.4,0.3 158.5,0.3 		"/>
		<polygon class="st0" points="149.3,29.3 149,29.1 164.1,0.3 103.3,0.3 6,117.6 6.5,117.6 103.1,117.6 		"/>
		<polygon class="st1" points="150.5,208.9 103.5,117.6 103.1,117.6 6.5,117.6 105.3,235.4 164,235.2 163.8,234.8 163.4,235.2 		"/>
		<polygon class="st2" points="173.6,191.2 149.1,206.1 150.5,208.9 163.4,235.2 163.8,234.8 200.2,191.2 		"/>
		<polygon class="st3" points="149.3,29.3 174.7,44 200.4,44 164.5,0.3 164.4,0.3 164.2,0 164.1,0.3 149,29.1 		"/>
		<polygon class="st4" points="151.3,147.7 153.7,149 238,186.8 237.9,140.1 195.2,121.2 191.1,123.2 		"/>
		<polygon class="st5" points="143.3,143.4 143.3,143.4 143.3,143.4 		"/>
		<polygon class="st5" points="191.5,122.9 191.1,123.2 195.2,121.2 213.5,112.6 213.5,66.5 213.4,66.6 213.5,66.6 144.3,99.2 
			144.3,145.4 		"/>
		<polygon class="st6" points="199.5,66.5 199.5,66.5 199.5,66.5 144.3,66.5 144.3,99.2 		"/>
		<polygon class="st4" points="213.4,66.6 199.5,66.5 199.5,66.5 144.3,99.2 144.3,99.2 213.5,66.6 		"/>
		<polygon class="st7" points="153.7,149 222.9,186.9 238.1,186.9 238,186.8 		"/>
		<polygon class="st8" points="153.7,149 151.3,147.7 191.1,123.2 191.5,122.9 144.3,145.4 144.3,145.4 144.3,145.4 144.3,145.4 
			144.3,186.9 222.9,186.9 		"/>
	</g>
</g>
</svg>
