<svg version="1.1" id="a6ee8617-cc99-4eb9-a93b-e1a7e83c9724" xmlns="http://www.w3.org/2000/svg" x="0" y="0" viewBox="0 0 1088 826.3" xml:space="preserve"><style>.st1{opacity:.1;enable-background:new}.st4{fill:#1c5e29}.st5{fill:#267f35}.st8{fill:#ffb9b9}.st9{fill:#d0cde1}.st10{fill:#1e1107}.st11{fill:#0d9ab6}.st12{fill:#0e0f0f}.st13{fill:#141616}.st16{fill:#0a0a0c}.st17{fill:#d3816a}.st21{fill:#33393a}</style><path d="M935 329.4C887.2 141.3 721.9 5.6 528 .2 425.5-2.7 317.6 31.3 239 150.3 98.6 363 247.6 510 351.5 579.9c50.2 33.8 95.4 74.5 134.4 120.8C556.1 784 691.2 887.5 852 725.3c116.6-117.6 114.8-270.7 83-395.9z" fill="#f2f2f2"/><path class="st1" d="M719.6 507.4l98.4-98.1-98.4-98.1 30-29.9 128.4 128-128.4 128-30-29.9zM438.6 416.3h40v-40h-40v40zm200.8-40h-40v40h40v-40zm-120.4 40h40v-40h-40v40zM384.4 506.4l-98.5-98.1 98.4-98.1-30-29.9-128.3 128 128.4 128z"/><path d="M1088 752.3c0 16.6-243.6 74-544 74S0 768.9 0 752.3s243.6 14 544 14 544-30.6 544-14z" fill="#028b9e"/><ellipse cx="544" cy="752.3" rx="544" ry="30" fill="#015f6b"/><path class="st4" d="M632.7 608c0 64 40.2 115.8 89.8 115.8"/><path class="st5" d="M722.5 723.8c0-64.7 44.8-117.1 100.2-117.1M665.2 613.8c0 60.8 25.6 110 57.3 110"/><path class="st4" d="M722.5 723.8c0-82.7 51.8-149.7 115.8-149.7"/><path d="M703.6 724.6s12.7-.4 16.6-3.1 19.6-6 20.5-1.6 19.1 21.8 4.8 21.9-33.4-2.2-37.2-4.6-4.7-12.6-4.7-12.6z" fill="#a8a8a8"/><path d="M745.7 740.2c-14.4.1-33.4-2.2-37.2-4.6-2.9-1.8-4.1-8.2-4.5-11.1h-.4s.8 10.3 4.6 12.6 22.9 4.7 37.2 4.6c4.1 0 5.6-1.5 5.5-3.7-.5 1.4-2.1 2.2-5.2 2.2z" opacity=".2"/><path class="st8" d="M865.5 382.9s-30.8-23.4-33.1-14.8 22.6 28 22.6 28l10.5-13.2z"/><path class="st1" d="M865.5 382.9s-30.8-23.4-33.1-14.8 22.6 28 22.6 28l10.5-13.2z"/><path class="st9" d="M967.2 308.8s-36.6 65.4-37.4 74.8-.8 10.1-3.9 9.3-46-5.5-49.9-3.9-11.7-9.3-11.7-9.3-14.8 14.8-11.7 17.9 12.5 4.7 14 8.6 3.9 7.8 10.9 7 54.5 12.5 60.8 10.1 7.8-6.2 10.9-6.2 9.3-3.1 9.3-3.9 21.8-42.1 21.8-42.1 25.8-56-13.1-62.3z"/><path class="st1" d="M967.2 308.8s-36.6 65.4-37.4 74.8-.8 10.1-3.9 9.3-46-5.5-49.9-3.9-11.7-9.3-11.7-9.3-14.8 14.8-11.7 17.9 12.5 4.7 14 8.6 3.9 7.8 10.9 7 54.5 12.5 60.8 10.1 7.8-6.2 10.9-6.2 9.3-3.1 9.3-3.9 21.8-42.1 21.8-42.1 25.8-56-13.1-62.3z"/><path class="st10" d="M914.1 265.7c-.3 4.1-.3 8.3.2 12.4 1.2 8.9 5.3 18.3 1.4 26.6-1.4 3-3.8 5.7-5.1 8.7-2.8 6.5-.3 13.7-.6 20.6-.5 8.9-6.2 17.5-14.8 22.4 14.8.5 28.8-6.8 38.1-16.8s14.5-22.3 18.3-34.6c2-5.8 3.3-11.8 3.8-17.9.3-3.5-.1-7-1.2-10.4-1.4-3.3-3.2-6.3-5.3-9.1-2.3-3.3-4.7-6.6-8.1-9-4.2-3-12.4-6-18-5.6-7 .6-8.5 7.9-8.7 12.7z"/><path class="st8" d="M936.8 290.1s8.6 30.4 1.6 38.9 42.1-3.9 42.1-3.9-24.1-24.1-12.5-39.7l-31.2 4.7z"/><path class="st1" d="M936.8 290.1s8.6 30.4 1.6 38.9 42.1-3.9 42.1-3.9-24.1-24.1-12.5-39.7l-31.2 4.7z"/><path class="st11" d="M719.6 488.4l98.4-98.1-98.4-98.1 30-29.9 128.4 128-128.4 128-30-29.9z"/><path class="st8" d="M908.7 695.2v22.6l11.7 14 10.2-4.6-3.2-32.8z"/><path class="st12" d="M913.4 716.3s-3.1-10.9-8.6-3.1-10.9 24.9-14 25.7-24.9 24.9-3.1 24.9 28.8-10.1 28.8-10.1 21.8-8.6 21.8-10.1-3.1-30.4-4.7-30.4-2.3 5.5-6.2 5.5-14-2.4-14-2.4z"/><path class="st8" d="M960.9 699.1l-.7 21 18.7 7.8v-30.3z"/><path class="st12" d="M981.2 720.1s-10.1-10.9-15.6-8.6c-2.7 1.1-5.3 2.4-7.8 3.9 0 0-3.1 10.1-4.7 18.7s-2.3 12.5-3.9 15.6-3.1 14.8 12.5 16.4c15.6 1.6 20.3-7 20.3-7l3.9-20.3s-1.6-18.7-4.7-18.7z"/><path class="st13" d="M918.9 474.8s-22.6 50.6-19.5 96.6c0 0-7.8 17.9-3.1 46s10.9 84.1 10.9 84.1 21 2.3 22.6-1.6c0 0 1.6-38.9 3.1-40.5s-.8-37.4-3.1-44.4 21.8-76.3 21.8-76.3l-6.2-86.5-26.5 22.6z"/><path class="st1" d="M918.9 476s-22.6 50.6-19.5 96.6c0 0-7.8 17.9-3.1 46s10.9 84.1 10.9 84.1 21 2.3 22.6-1.6c0 0 1.6-38.9 3.1-40.5s-.8-37.4-3.1-44.4 21.8-76.3 21.8-76.3l-6.2-86.5-26.5 22.6z"/><path d="M912.6 471.7l14.8 31.9s7 72.4 10.9 81.8c0 0 1.6 26.5 8.6 35.1s12.5 84.1 12.5 84.1 19.5 5.5 21 0 6.2-42.8 6.2-42.8 1.6-31.9-7-53 10.1-96.6 10.1-96.6 19.5-36.6-8.6-66.2l-68.5 25.7z" fill="#1b1e1e"/><circle class="st8" cx="953.9" cy="267.6" r="31.9"/><path class="st9" d="M983.5 315.9s-33.5 0-38.2 3.9c-2.4 2.3-6.2 2.3-8.6 0 0 0-11.7.8-14.8 10.1s-12.5 21.8-12.5 21.8-14 10.1-6.2 36.6 1.6 69.3 1.6 69.3-6.2 9.3 0 13.2 8.6 5.5 7.8 8.6 70.9-25.7 70.9-31.2-1.6-10.1 0-12.5 3.1-6.2 1.6-10.1 1.6-4.7.8-8.6 3.9-32.7 7-45.2 2.3-55.2-9.4-55.9z"/><path class="st8" d="M865.5 392.2s-30.8-23.4-33.1-14.8 22.6 28 22.6 28l10.5-13.2z"/><path class="st9" d="M967.2 319.7s-36.6 65.4-37.4 74.8-.8 10.1-3.9 9.3-46-5.5-49.9-3.9-11.7-9.3-11.7-9.3-14.8 14.8-11.7 17.9 12.5 4.7 14 8.6 3.9 7.8 10.9 7 54.5 12.5 60.8 10.1 7.8-6.2 10.9-6.2 9.3-3.1 9.3-3.9 21.8-42.1 21.8-42.1 25.8-56-13.1-62.3z"/><path class="st10" d="M938.1 288c-.4-3.2-2.1-6-2.9-9.1-1.3-5-.5-10.3 2.2-14.7 4.6-7.4 13.6-10.7 19.8-16.7.1 3.1 2.3 5.7 4.6 7.7 2.4 2 5.1 3.6 7.1 5.9 1.9 2.5 3.3 5.3 4.1 8.3 1.2 3.5 1.8 7.2 1.6 10.9-.2 3.7-1.9 7.3-4.7 9.7-2.3 1.8-5.6 2.9-6.7 5.7-.4 1.4-.6 2.8-.4 4.3.5 8.6 1 17.3-1 25.6s-7 16.4-14.7 20.1c6.4.5 12.9.9 19-.7 6.2-1.6 12.1-5.7 14.2-11.7 1.1-3 1.2-6.3 2.6-9 3.8-7 14.2-7.3 19.3-13.4 2.1-2.4 3-5.6 3.8-8.7 4.3-18.3 1.3-37.7-5.3-55.2-2.3-6.1-5.1-12.2-10-16.4-4.1-3.6-9.4-5.6-14.7-7.3-7.6-2.5-15.5-4.5-23.5-4.8-3.5-.2-7 .2-10.3 1.2-3.3 1.2-6.4 2.9-9.1 5.2-12.6 9.8-21.1 25.4-20 41.3.7 9.6 4.8 18.7 10 26.8 1.8 2.8 6.2 8.9 10.2 7.1 3.7-1.8 5.3-8.7 4.8-12.1z"/><path d="M438.6 397.3h40v-40h-40v40zm200.8-40h-40v40h40v-40zm-120.4 40h40v-40h-40v40z" fill="#0b6e98"/><ellipse class="st16" cx="206.2" cy="211.8" rx="33.7" ry="26.3"/><path class="st17" d="M211.9 392.6s30.3 2 35.7-2 28.3 5.4 30.3 10.8-32.3 6.1-37.7 6.1-31 8.1-31 8.1l2.7-23z"/><path d="M149.6 706.1s-14.1 35.6-6.8 39.9 84.7 1.2 84.7 1.2 12.9-8-1.8-13.5c0 0-12.3-.6-20.3-5.5s-17.2-14.1-17.2-14.1-.6-13.5-5.5-10.4c-3 2-5 5.1-5.5 8.6l-27.6-6.2z" fill="#090909"/><path class="st11" d="M384.4 487.4l-98.5-98.1 98.4-98.1-30-29.9-128.3 128 128.4 128z"/><path d="M127.8 717s-15.5 39-7.4 43.8 92.9 1.3 92.9 1.3 14.1-8.8-2-14.8c0 0-13.5-.7-22.2-6.1s-18.8-15.5-18.8-15.5-.7-14.8-6.1-11.4c-3.3 2.1-5.5 5.6-6.1 9.4l-30.3-6.7z" fill="#0c0c0c"/><path class="st12" d="M207.2 469.3l-9.4 84.8s-3.4 40.4-13.5 49.1c0 0 0 12.8-3.4 16.8l-4.7 53.2s6.7 19.5 6.1 22.9 2.7 14.1 2 15.5-32.3 0-32.3 0l6.7-108.4 20.9-150.8 27.6 16.9z"/><path class="st13" d="M191.6 472.7s-7.4 69.3-10.8 84.1c-2.1 9.8-3.5 19.7-4 29.6 0 0-.7 21.5-6.7 27.6-3.6 3.5-5.5 8.4-5.4 13.5 0 0-6.1 68-2.7 76.1s6.7 14.8 3.4 20.2-40.4 5.4-40.4 1.3 0-7.4-2-9.4 0-14.8 0-14.8-8.1-59.9-.7-77.4c7.4-17.5 10.8-65.3 10.8-65.3s-5.4-54.5-12.1-63.3 1.3-39.7 1.3-39.7l69.3 17.5z"/><path d="M171.4 251.3c.8 1.8 2.7 2.8 4.4 3.7 9.9 5.4 18.2 13.3 26.3 21.1-2-6.9-1.6-14.3 1.2-20.9 1-2.3 2.2-4.7 1.6-7-.5-1.7-2-3-3.4-4.1-3.3-2.6-6.8-4.9-10.4-7.1-2.5-1.5-7.7-5.5-10.6-5.1-.2 3.9-.2 7.4-1.9 11.1-.5.9-6.9 9-7.2 8.3z" fill="#d1745e"/><circle class="st17" cx="205.9" cy="232.4" r="27.6"/><path class="st21" d="M207.2 298.6s4.7-24-8.8-32.2-28.9-17.8-28.9-17.8-4.7-.7-6.7 9.6c0 0-38.4 7.5-42.4 44.6s2.7 91.2 2.7 91.2-6.1 47.3-13.5 72.7c0 0-6.1 5.5 20.9-2.7s74 23.3 74 23.3 4.7-4.8 4.7-8.2c0-3.4 5.4-23.3 5.4-23.3s4.7-84.4 6.7-94-8-61.8-14.1-63.2z"/><path class="st16" d="M199.4 235.2c1.7-.9 3.5-1.4 5.4-1.4 1.9 0 3.8-.6 5.4-1.6 2.6-2 2.8-5.9 4.7-8.5 2.8-3.9 8.3-4.3 13-4.1 2.9.1 6 .3 8.5-1.3s3.7-4.7 4.5-7.5c1-3.4 1.7-7.5-.8-10-1.7-1.7-4.4-2.1-6.4-3.6-2-1.6-2.8-4.2-3.9-6.5-1.2-2.8-3.2-5.2-5.6-7.1-3.6-2.5-8.2-3.1-12.6-3s-8.8.6-13.2.1c-3.6-.4-7.1-1.6-10.7-1.1-4.5.7-8.3 4.1-10.5 8.1s-3.2 8.6-4.1 13.1l-2.5 12.2c-.8 3.8-1.6 7.7-1 11.5 1.3 7.9 8.3 14.2 8.8 22.3.9-4.5 4.1-8.2 8.3-9.9.5-.3 1.1-.3 1.7-.2.7.2 1.1.9 1.5 1.5 1.2 1.5 4.8 3.9 6.8 2.8 1.7-1.2.4-4.2 2.7-5.8z"/><path class="st17" d="M129.8 360.9s-4.7 29.6 14.8 26.9c0 0 10.1-1.3 11.4 0s51.2-7.4 57.9-14.8c0 0 8.1-2.7 12.1 1.3s44.4 8.1 32.3-4-31-14.8-31-14.8l-25.6 1.3s-13.5 4-21.5 0-31-2.7-31-2.7l-19.4 6.8z"/><path class="st21" d="M157.4 267.4s-30.3 3.4-30.3 47.1v55.9s16.8-7.4 20.2-6.7 16.8-8.8 16.8-8.8 15.5-36.3 14.1-46.4-.6-39.8-20.8-41.1z"/><ellipse class="st16" cx="205.9" cy="215.2" rx="25.9" ry="13.5"/><ellipse class="st16" cx="181.6" cy="217.6" rx="9.1" ry="22.6"/></svg>